<svg width="400" height="400" viewBox="0 0 400 400" fill="none" xmlns="http://www.w3.org/2000/svg">
<g clip-path="url(#clip0_18266_5400)">
<rect y="-0.00341797" width="400" height="400" rx="18" fill="#FFF200"/>
<rect y="311.181" width="400" height="88.8329" fill="#000923"/>
<path d="M199.969 295.665C277.87 295.665 341.021 232.514 341.021 154.613C341.021 76.7116 277.87 13.5602 199.969 13.5602C122.067 13.5602 58.916 76.7116 58.916 154.613C58.916 232.514 122.067 295.665 199.969 295.665Z" fill="#000923"/>
<path d="M283.557 126.074V224.237H257.279V126.074H283.557ZM286.699 98.1774C286.699 100.399 286.255 102.462 285.366 104.366C284.478 106.27 283.272 107.952 281.748 109.412C280.288 110.872 278.543 112.015 276.512 112.84C274.544 113.665 272.418 114.078 270.133 114.078C267.975 114.078 265.912 113.665 263.944 112.84C262.04 112.015 260.358 110.872 258.898 109.412C257.438 107.952 256.264 106.27 255.375 104.366C254.55 102.462 254.137 100.399 254.137 98.1774C254.137 95.9559 254.55 93.893 255.375 91.9887C256.264 90.0211 257.438 88.3073 258.898 86.8474C260.358 85.3875 262.04 84.2449 263.944 83.4198C265.912 82.5946 267.975 82.182 270.133 82.182C272.418 82.182 274.544 82.5946 276.512 83.4198C278.543 84.2449 280.288 85.3875 281.748 86.8474C283.272 88.3073 284.478 90.0211 285.366 91.9887C286.255 93.893 286.699 95.9559 286.699 98.1774Z" fill="white"/>
<path d="M199.548 171.775L184.6 129.502C183.712 127.28 182.76 124.678 181.744 121.694C180.792 118.711 179.872 115.474 178.983 111.983C178.094 115.538 177.142 118.838 176.127 121.885C175.175 124.868 174.254 127.471 173.366 129.692L158.513 171.775H199.548ZM247.535 224.237H225.351C222.875 224.237 220.844 223.665 219.257 222.523C217.734 221.317 216.591 219.793 215.83 217.953L206.499 191.579H151.467L142.136 217.953C141.502 219.539 140.391 220.999 138.804 222.332C137.217 223.602 135.218 224.237 132.806 224.237H110.431L164.416 86.0856H193.645L247.535 224.237Z" fill="white"/>
<path d="M315.386 352.464V379.898H306.101V345.017H314.805L315.386 352.464ZM314.032 361.233H311.517C311.517 358.654 311.85 356.332 312.516 354.269C313.183 352.185 314.117 350.411 315.321 348.95C316.525 347.467 317.954 346.339 319.609 345.565C321.285 344.77 323.155 344.372 325.218 344.372C326.851 344.372 328.345 344.609 329.699 345.081C331.053 345.554 332.214 346.307 333.181 347.338C334.169 348.37 334.922 349.734 335.437 351.432C335.975 353.13 336.243 355.204 336.243 357.654V379.898H326.894V357.622C326.894 356.075 326.679 354.871 326.25 354.011C325.82 353.152 325.186 352.55 324.348 352.206C323.531 351.841 322.521 351.658 321.317 351.658C320.071 351.658 318.985 351.905 318.061 352.399C317.159 352.894 316.406 353.581 315.805 354.463C315.224 355.322 314.784 356.332 314.483 357.493C314.182 358.654 314.032 359.9 314.032 361.233Z" fill="white"/>
<path d="M266.225 362.812V362.135C266.225 359.578 266.59 357.224 267.321 355.075C268.051 352.904 269.115 351.024 270.512 349.434C271.909 347.843 273.629 346.607 275.67 345.726C277.712 344.824 280.055 344.372 282.698 344.372C285.342 344.372 287.695 344.824 289.758 345.726C291.821 346.607 293.551 347.843 294.948 349.434C296.367 351.024 297.441 352.904 298.172 355.075C298.903 357.224 299.268 359.578 299.268 362.135V362.812C299.268 365.348 298.903 367.702 298.172 369.872C297.441 372.021 296.367 373.902 294.948 375.514C293.551 377.104 291.832 378.34 289.79 379.221C287.749 380.102 285.406 380.543 282.763 380.543C280.119 380.543 277.766 380.102 275.702 379.221C273.661 378.34 271.931 377.104 270.512 375.514C269.115 373.902 268.051 372.021 267.321 369.872C266.59 367.702 266.225 365.348 266.225 362.812ZM275.509 362.135V362.812C275.509 364.274 275.638 365.638 275.896 366.906C276.154 368.174 276.562 369.292 277.121 370.259C277.701 371.205 278.453 371.946 279.378 372.483C280.302 373.021 281.43 373.289 282.763 373.289C284.052 373.289 285.159 373.021 286.083 372.483C287.007 371.946 287.749 371.205 288.307 370.259C288.866 369.292 289.275 368.174 289.532 366.906C289.812 365.638 289.951 364.274 289.951 362.812V362.135C289.951 360.717 289.812 359.384 289.532 358.138C289.275 356.87 288.855 355.752 288.275 354.785C287.716 353.796 286.975 353.023 286.051 352.464C285.127 351.905 284.009 351.626 282.698 351.626C281.387 351.626 280.269 351.905 279.345 352.464C278.443 353.023 277.701 353.796 277.121 354.785C276.562 355.752 276.154 356.87 275.896 358.138C275.638 359.384 275.509 360.717 275.509 362.135Z" fill="white"/>
<path d="M258.715 345.017V379.898H249.398V345.017H258.715ZM248.818 335.926C248.818 334.572 249.291 333.454 250.236 332.573C251.182 331.692 252.45 331.251 254.04 331.251C255.609 331.251 256.867 331.692 257.812 332.573C258.779 333.454 259.263 334.572 259.263 335.926C259.263 337.28 258.779 338.397 257.812 339.279C256.867 340.16 255.609 340.6 254.04 340.6C252.45 340.6 251.182 340.16 250.236 339.279C249.291 338.397 248.818 337.28 248.818 335.926Z" fill="white"/>
<path d="M239.922 330.381V379.898H230.605V330.381H239.922Z" fill="white"/>
<path d="M221.128 330.381V379.898H211.811V330.381H221.128Z" fill="white"/>
<path d="M202.335 345.017V379.898H193.018V345.017H202.335ZM192.438 335.926C192.438 334.572 192.911 333.454 193.856 332.573C194.802 331.692 196.07 331.251 197.66 331.251C199.229 331.251 200.487 331.692 201.432 332.573C202.399 333.454 202.883 334.572 202.883 335.926C202.883 337.28 202.399 338.397 201.432 339.279C200.487 340.16 199.229 340.6 197.66 340.6C196.07 340.6 194.802 340.16 193.856 339.279C192.911 338.397 192.438 337.28 192.438 335.926Z" fill="white"/>
<path d="M176.321 352.625V379.898H167.036V345.017H175.773L176.321 352.625ZM186.83 344.791L186.669 353.399C186.218 353.334 185.669 353.28 185.025 353.237C184.401 353.173 183.832 353.141 183.316 353.141C182.005 353.141 180.866 353.313 179.899 353.657C178.953 353.979 178.158 354.463 177.513 355.107C176.89 355.752 176.417 356.536 176.095 357.461C175.794 358.385 175.622 359.438 175.579 360.62L173.709 360.04C173.709 357.783 173.935 355.709 174.386 353.818C174.838 351.905 175.493 350.239 176.353 348.821C177.234 347.402 178.309 346.306 179.577 345.533C180.845 344.759 182.295 344.372 183.929 344.372C184.444 344.372 184.971 344.415 185.508 344.501C186.046 344.566 186.486 344.662 186.83 344.791Z" fill="white"/>
<path d="M148.598 332.96V379.898H138.958V332.96H148.598ZM163.04 332.96V340.536H124.742V332.96H163.04Z" fill="white"/>
<path d="M118.038 345.017V379.898H108.721V345.017H118.038ZM108.141 335.926C108.141 334.572 108.613 333.454 109.559 332.573C110.505 331.692 111.773 331.251 113.363 331.251C114.932 331.251 116.189 331.692 117.135 332.573C118.102 333.454 118.586 334.572 118.586 335.926C118.586 337.28 118.102 338.397 117.135 339.279C116.189 340.16 114.932 340.6 113.363 340.6C111.773 340.6 110.505 340.16 109.559 339.279C108.613 338.397 108.141 337.28 108.141 335.926Z" fill="white"/>
<path d="M82.2228 340.987L69.4567 379.898H59.1729L76.6134 332.96H83.1577L82.2228 340.987ZM92.8289 379.898L80.0306 340.987L78.999 332.96H85.6077L103.145 379.898H92.8289ZM92.2487 362.425V370.001H67.4579V362.425H92.2487Z" fill="white"/>
</g>
<defs>
<clipPath id="clip0_18266_5400">
<rect y="-0.00341797" width="400" height="400" rx="18" fill="white"/>
</clipPath>
</defs>
</svg>
